# ProBuilder 5.0.6
# https://unity3d.com/unity/features/worldbuilding/probuilder
# 12/6/2022 9:20:26 PM

mtllib ./Intact_Record.mtl
o Intact Record

g Cylinder
v -0.5406353 -0.008244939 0
v -0.5406353 0.008244939 0
v -0.5302472 -0.008244939 0.1054727
v -0.5302472 0.008244939 0.1054727
v -0.4994819 -0.008244939 0.2068923
v -0.4994819 0.008244939 0.2068923
v -0.4495218 -0.008244939 0.300361
v -0.4495218 0.008244939 0.300361
v -0.3822869 -0.008244939 0.382287
v -0.3822869 0.008244939 0.382287
v -0.3003609 -0.008244939 0.449522
v -0.3003609 0.008244939 0.449522
v -0.2068922 -0.008244939 0.4994821
v -0.2068922 0.008244939 0.4994821
v -0.1054727 -0.008244939 0.5302473
v -0.1054727 0.008244939 0.5302473
v 0 -0.008244939 0.5406355
v 0 0.008244939 0.5406355
v 0.1054727 -0.008244939 0.5302473
v 0.1054727 0.008244939 0.5302473
v 0.2068922 -0.008244939 0.4994821
v 0.2068922 0.008244939 0.4994821
v 0.3003609 -0.008244939 0.449522
v 0.3003609 0.008244939 0.449522
v 0.3822869 -0.008244939 0.382287
v 0.3822869 0.008244939 0.382287
v 0.4495219 -0.008244939 0.300361
v 0.4495219 0.008244939 0.300361
v 0.4994819 -0.008244939 0.2068923
v 0.4994819 0.008244939 0.2068923
v 0.5302472 -0.008244939 0.1054727
v 0.5302472 0.008244939 0.1054727
v 0.5406353 -0.008244939 -5.960464E-08
v 0.5406353 0.008244939 -5.960464E-08
v 0.5302472 -0.008244939 -0.1054727
v 0.5302472 0.008244939 -0.1054727
v 0.4994819 -0.008244939 -0.2068923
v 0.4994819 0.008244939 -0.2068923
v 0.4495218 -0.008244939 -0.300361
v 0.4495218 0.008244939 -0.300361
v 0.3822869 -0.008244939 -0.382287
v 0.3822869 0.008244939 -0.382287
v 0.300361 -0.008244939 -0.4495219
v 0.300361 0.008244939 -0.4495219
v 0.2068923 -0.008244939 -0.4994822
v 0.2068923 0.008244939 -0.4994822
v 0.1054727 -0.008244939 -0.5302473
v 0.1054727 0.008244939 -0.5302473
v 0 -0.008244939 -0.5406356
v 0 0.008244939 -0.5406356
v -0.1054728 -0.008244939 -0.5302473
v -0.1054728 0.008244939 -0.5302473
v -0.2068923 -0.008244939 -0.499482
v -0.2068923 0.008244939 -0.499482
v -0.3003608 -0.008244939 -0.4495221
v -0.3003608 0.008244939 -0.4495221
v -0.3822868 -0.008244939 -0.3822871
v -0.3822868 0.008244939 -0.3822871
v -0.4495218 -0.008244939 -0.300361
v -0.4495218 0.008244939 -0.300361
v -0.4994819 -0.008244939 -0.2068923
v -0.4994819 0.008244939 -0.2068923
v -0.5302472 -0.008244939 -0.1054727
v -0.5302472 0.008244939 -0.1054727
v 0 -0.008244939 0
v 0 0.008244939 0

vt -0.05299142 -0.008244939
vt -0.05299142 0.008244939
vt 0.05299166 -0.008244939
vt 0.05299166 0.008244939
vt -0.5406353 0
vt 0 0
vt -0.5302472 0.1054727
vt 0.5406353 0
vt 0.5302472 0.1054727
vt -0.4994819 0.2068923
vt 0.4994819 0.2068923
vt -0.4495218 0.300361
vt 0.4495218 0.300361
vt -0.3822869 0.382287
vt 0.3822869 0.382287
vt -0.3003609 0.449522
vt 0.3003609 0.449522
vt -0.2068922 0.4994821
vt 0.2068922 0.4994821
vt -0.1054727 0.5302473
vt 0.1054727 0.5302473
vt 0 0.5406355
vt 0.5302472 -0.1054727
vt -0.5302472 -0.1054727
vt 0.4994819 -0.2068923
vt -0.4994819 -0.2068923
vt 0.4495218 -0.300361
vt -0.4495218 -0.300361
vt 0.3822869 -0.382287
vt -0.3822869 -0.382287
vt 0.300361 -0.4495219
vt -0.300361 -0.4495219
vt 0.2068923 -0.4994822
vt -0.2068923 -0.4994822
vt 0.1054727 -0.5302473
vt -0.1054727 -0.5302473
vt 0 -0.5406356

vn -1 0 -2.620321E-08
vn -0.9807853 0 0.1950903
vn -0.9238796 0 0.3826835
vn -0.8314697 0 0.5555702
vn -0.7071069 0 0.7071066
vn -0.5555705 0 0.8314695
vn -0.3826835 0 0.9238795
vn -0.1950904 0 0.9807853
vn 0 0 1
vn 0.1950903 0 0.9807853
vn 0.3826833 0 0.9238796
vn 0.5555705 0 0.8314694
vn 0.7071069 0 0.7071066
vn 0.8314697 0 0.5555702
vn 0.9238796 0 0.3826834
vn 0.9807853 0 0.1950902
vn 1 0 -5.614973E-08
vn 0.9807853 0 -0.1950904
vn 0.9238795 0 -0.3826835
vn 0.8314697 0 -0.5555701
vn 0.7071069 0 -0.7071066
vn 0.5555708 0 -0.8314692
vn 0.3826837 0 -0.9238794
vn 0.1950903 0 -0.9807853
vn 2.994652E-08 0 -1
vn -0.1950909 0 -0.9807852
vn -0.3826835 0 -0.9238795
vn -0.55557 0 -0.8314697
vn -0.7071068 0 -0.7071068
vn -0.8314697 0 -0.55557
vn -0.9238796 0 -0.3826834
vn -0.9807853 0 -0.1950903
vn 0 -1 0
vn 0 1 0

usemtl Lit
f 1/5/33 65/6/33 3/7/33
f 3/7/33 65/6/33 5/10/33
f 5/10/33 65/6/33 7/12/33
f 7/12/33 65/6/33 9/14/33
f 9/14/33 65/6/33 11/16/33
f 11/16/33 65/6/33 13/18/33
f 13/18/33 65/6/33 15/20/33
f 15/20/33 65/6/33 17/22/33
f 17/22/33 65/6/33 19/21/33
f 19/21/33 65/6/33 21/19/33
f 21/19/33 65/6/33 23/17/33
f 23/17/33 65/6/33 25/15/33
f 25/15/33 65/6/33 27/13/33
f 27/13/33 65/6/33 29/11/33
f 29/11/33 65/6/33 31/9/33
f 31/9/33 65/6/33 33/8/33
f 33/8/33 65/6/33 35/23/33
f 35/23/33 65/6/33 37/25/33
f 37/25/33 65/6/33 39/27/33
f 39/27/33 65/6/33 41/29/33
f 41/29/33 65/6/33 43/31/33
f 43/31/33 65/6/33 45/33/33
f 45/33/33 65/6/33 47/35/33
f 47/35/33 65/6/33 49/37/33
f 49/37/33 65/6/33 51/36/33
f 51/36/33 65/6/33 53/34/33
f 53/34/33 65/6/33 55/32/33
f 55/32/33 65/6/33 57/30/33
f 57/30/33 65/6/33 59/28/33
f 59/28/33 65/6/33 61/26/33
f 61/26/33 65/6/33 63/24/33
f 63/24/33 65/6/33 1/5/33
f 4/9/34 66/6/34 2/8/34
f 6/11/34 66/6/34 4/9/34
f 8/13/34 66/6/34 6/11/34
f 10/15/34 66/6/34 8/13/34
f 12/17/34 66/6/34 10/15/34
f 14/19/34 66/6/34 12/17/34
f 16/21/34 66/6/34 14/19/34
f 18/22/34 66/6/34 16/21/34
f 20/20/34 66/6/34 18/22/34
f 22/18/34 66/6/34 20/20/34
f 24/16/34 66/6/34 22/18/34
f 26/14/34 66/6/34 24/16/34
f 28/12/34 66/6/34 26/14/34
f 30/10/34 66/6/34 28/12/34
f 32/7/34 66/6/34 30/10/34
f 34/5/34 66/6/34 32/7/34
f 36/24/34 66/6/34 34/5/34
f 38/26/34 66/6/34 36/24/34
f 40/28/34 66/6/34 38/26/34
f 42/30/34 66/6/34 40/28/34
f 44/32/34 66/6/34 42/30/34
f 46/34/34 66/6/34 44/32/34
f 48/36/34 66/6/34 46/34/34
f 50/37/34 66/6/34 48/36/34
f 52/35/34 66/6/34 50/37/34
f 54/33/34 66/6/34 52/35/34
f 56/31/34 66/6/34 54/33/34
f 58/29/34 66/6/34 56/31/34
f 60/27/34 66/6/34 58/29/34
f 62/25/34 66/6/34 60/27/34
f 64/23/34 66/6/34 62/25/34
f 2/8/34 66/6/34 64/23/34
f 4/4/2 2/2/1 1/1/1
f 1/1/1 3/3/2 4/4/2
f 6/4/3 4/2/2 3/1/2
f 3/1/2 5/3/3 6/4/3
f 8/4/4 6/2/3 5/1/3
f 5/1/3 7/3/4 8/4/4
f 10/4/5 8/2/4 7/1/4
f 7/1/4 9/3/5 10/4/5
f 12/4/6 10/2/5 9/1/5
f 9/1/5 11/3/6 12/4/6
f 14/4/7 12/2/6 11/1/6
f 11/1/6 13/3/7 14/4/7
f 16/4/8 14/2/7 13/1/7
f 13/1/7 15/3/8 16/4/8
f 18/4/9 16/2/8 15/1/8
f 15/1/8 17/3/9 18/4/9
f 20/4/10 18/2/9 17/1/9
f 17/1/9 19/3/10 20/4/10
f 22/4/11 20/2/10 19/1/10
f 19/1/10 21/3/11 22/4/11
f 24/4/12 22/2/11 21/1/11
f 21/1/11 23/3/12 24/4/12
f 26/4/13 24/2/12 23/1/12
f 23/1/12 25/3/13 26/4/13
f 28/4/14 26/2/13 25/1/13
f 25/1/13 27/3/14 28/4/14
f 30/4/15 28/2/14 27/1/14
f 27/1/14 29/3/15 30/4/15
f 32/4/16 30/2/15 29/1/15
f 29/1/15 31/3/16 32/4/16
f 34/4/17 32/2/16 31/1/16
f 31/1/16 33/3/17 34/4/17
f 36/4/18 34/2/17 33/1/17
f 33/1/17 35/3/18 36/4/18
f 38/4/19 36/2/18 35/1/18
f 35/1/18 37/3/19 38/4/19
f 40/4/20 38/2/19 37/1/19
f 37/1/19 39/3/20 40/4/20
f 42/4/21 40/2/20 39/1/20
f 39/1/20 41/3/21 42/4/21
f 44/4/22 42/2/21 41/1/21
f 41/1/21 43/3/22 44/4/22
f 46/4/23 44/2/22 43/1/22
f 43/1/22 45/3/23 46/4/23
f 48/4/24 46/2/23 45/1/23
f 45/1/23 47/3/24 48/4/24
f 50/4/25 48/2/24 47/1/24
f 47/1/24 49/3/25 50/4/25
f 52/4/26 50/2/25 49/1/25
f 49/1/25 51/3/26 52/4/26
f 54/4/27 52/2/26 51/1/26
f 51/1/26 53/3/27 54/4/27
f 56/4/28 54/2/27 53/1/27
f 53/1/27 55/3/28 56/4/28
f 58/4/29 56/2/28 55/1/28
f 55/1/28 57/3/29 58/4/29
f 60/4/30 58/2/29 57/1/29
f 57/1/29 59/3/30 60/4/30
f 62/4/31 60/2/30 59/1/30
f 59/1/30 61/3/31 62/4/31
f 64/4/32 62/2/31 61/1/31
f 61/1/31 63/3/32 64/4/32
f 2/4/1 64/2/32 63/1/32
f 63/1/32 1/3/1 2/4/1

