# ProBuilder 5.0.6
# https://unity3d.com/unity/features/worldbuilding/probuilder
# 12/1/2022 1:02:30 AM

mtllib ./Plane.mtl
o Plane

g Plane
v 0.206904 0.0001 -0.2253705
v 0.206904 0.0001 -0.1813705
v 0.172904 0.0001 -0.2253705
v 0.172904 0.0001 -0.1813705
v 0.206904 0.0001 -0.1373705
v 0.172904 0.0001 -0.1373705
v 0.206904 0.0001 -0.09337051
v 0.172904 0.0001 -0.09337051
v 0.206904 0.0001 -0.04937051
v 0.172904 0.0001 -0.04937051
v 0.206904 0.0001 -0.005370513
v 0.172904 0.0001 -0.005370513
v 0.138904 0.0001 -0.2253705
v 0.138904 0.0001 -0.1813705
v 0.138904 0.0001 -0.1373705
v 0.138904 0.0001 -0.09337051
v 0.138904 0.0001 -0.04937051
v 0.138904 0.0001 -0.005370513
v 0.104904 0.0001 -0.2253705
v 0.104904 0.0001 -0.1813705
v 0.104904 0.0001 -0.1373705
v 0.104904 0.0001 -0.09337051
v 0.104904 0.0001 -0.04937051
v 0.104904 0.0001 -0.005370513
v 0.07090402 0.0001 -0.2253705
v 0.07090402 0.0001 -0.1813705
v 0.07090402 0.0001 -0.1373705
v 0.07090402 0.0001 -0.09337051
v 0.07090402 0.0001 -0.04937051
v 0.07090402 0.0001 -0.005370513
v 0.03690401 0.0001 -0.2253705
v 0.03690401 0.0001 -0.1813705
v 0.03690401 0.0001 -0.1373705
v 0.03690401 0.0001 -0.09337051
v 0.03690401 0.0001 -0.04937051
v 0.03690401 0.0001 -0.005370513

vt -0.206904 -0.2253705
vt -0.206904 -0.1813705
vt -0.172904 -0.2253705
vt -0.172904 -0.1813705
vt -0.206904 -0.1373705
vt -0.172904 -0.1373705
vt -0.206904 -0.09337051
vt -0.172904 -0.09337051
vt -0.206904 -0.04937051
vt -0.172904 -0.04937051
vt -0.206904 -0.005370513
vt -0.172904 -0.005370513
vt -0.138904 -0.2253705
vt -0.138904 -0.1813705
vt -0.138904 -0.1373705
vt -0.138904 -0.09337051
vt -0.138904 -0.04937051
vt -0.138904 -0.005370513
vt -0.104904 -0.2253705
vt -0.104904 -0.1813705
vt -0.104904 -0.1373705
vt -0.104904 -0.09337051
vt -0.104904 -0.04937051
vt -0.104904 -0.005370513
vt -0.07090402 -0.2253705
vt -0.07090402 -0.1813705
vt -0.07090402 -0.1373705
vt -0.07090402 -0.09337051
vt -0.07090402 -0.04937051
vt -0.07090402 -0.005370513
vt -0.03690401 -0.2253705
vt -0.03690401 -0.1813705
vt -0.03690401 -0.1373705
vt -0.03690401 -0.09337051
vt -0.03690401 -0.04937051
vt -0.03690401 -0.005370513

vn 0 1 0

usemtl Lit
f 3/3/1 4/4/1 2/2/1 1/1/1
f 4/4/1 6/6/1 5/5/1 2/2/1
f 6/6/1 8/8/1 7/7/1 5/5/1
f 8/8/1 10/10/1 9/9/1 7/7/1
f 10/10/1 12/12/1 11/11/1 9/9/1
f 13/13/1 14/14/1 4/4/1 3/3/1
f 14/14/1 15/15/1 6/6/1 4/4/1
f 15/15/1 16/16/1 8/8/1 6/6/1
f 16/16/1 17/17/1 10/10/1 8/8/1
f 17/17/1 18/18/1 12/12/1 10/10/1
f 19/19/1 20/20/1 14/14/1 13/13/1
f 20/20/1 21/21/1 15/15/1 14/14/1
f 21/21/1 22/22/1 16/16/1 15/15/1
f 22/22/1 23/23/1 17/17/1 16/16/1
f 23/23/1 24/24/1 18/18/1 17/17/1
f 25/25/1 26/26/1 20/20/1 19/19/1
f 26/26/1 27/27/1 21/21/1 20/20/1
f 27/27/1 28/28/1 22/22/1 21/21/1
f 28/28/1 29/29/1 23/23/1 22/22/1
f 29/29/1 30/30/1 24/24/1 23/23/1
f 31/31/1 32/32/1 26/26/1 25/25/1
f 32/32/1 33/33/1 27/27/1 26/26/1
f 33/33/1 34/34/1 28/28/1 27/27/1
f 34/34/1 35/35/1 29/29/1 28/28/1
f 35/35/1 36/36/1 30/30/1 29/29/1

